<svg width="81" height="78" viewBox="0 0 81 78" fill="none" xmlns="http://www.w3.org/2000/svg">
  <g clip-path="url(#clip0_82_7)">
    <path d="M0 39V0H81V78H0" fill="#007ACC" />
    <path d="M17.7592 39.1364V42.315H28.2892V71.175H35.7615V42.315H46.2915V39.195C46.2915 37.44 46.2915 36.0165 46.2105 35.9775C46.2105 35.919 39.7912 35.8995 31.995 35.8995L17.82 35.9579V39.156L17.7592 39.1364ZM65.0835 35.88C67.149 36.348 68.7285 37.245 70.146 38.6685C70.8952 39.4485 72.009 40.8135 72.09 41.1645C72.09 41.2815 68.5868 43.5629 66.4605 44.8304C66.3795 44.8889 66.0555 44.5574 65.7315 44.0504C64.6785 42.6074 63.6052 41.9834 61.9245 41.8664C59.4945 41.7104 57.8745 42.9389 57.8745 44.9865C57.8745 45.6105 57.996 45.9615 58.239 46.4685C58.7857 47.541 59.7982 48.1844 62.937 49.5104C68.7285 51.9089 71.2395 53.4884 72.7582 55.7504C74.4795 58.2855 74.8642 62.2635 73.71 65.247C72.414 68.5035 69.255 70.707 64.7393 71.4285C63.3218 71.6625 60.0818 71.6235 58.563 71.37C55.323 70.785 52.2247 69.225 50.3212 67.2165C49.572 66.4365 48.1342 64.35 48.2152 64.2135L48.9847 63.7455L52.0222 62.049L54.3105 60.762L54.837 61.4445C55.5052 62.4585 57.0037 63.8235 57.8745 64.2915C60.507 65.598 64.0305 65.4225 65.772 63.9015C66.5212 63.2385 66.8452 62.5365 66.8452 61.5615C66.8452 60.6645 66.7035 60.255 66.2377 59.5725C65.5897 58.7145 64.2937 58.0125 60.6487 56.4525C56.457 54.7365 54.675 53.6445 53.0145 51.9675C52.0627 50.9535 51.192 49.374 50.787 48.0675C50.4832 46.9365 50.382 44.1675 50.6655 43.056C51.5362 39.156 54.594 36.426 58.968 35.646C60.3855 35.373 63.7267 35.49 65.124 35.841L65.0835 35.88Z" fill="white" />
  </g>
  <defs>
    <clipPath id="clip0_82_7">
      <rect width="81" height="78" fill="white" />
    </clipPath>
  </defs>
</svg>